<svg t="1612670867645" class="icon" viewBox="0 0 1024 1024" version="1.1" xmlns="http://www.w3.org/2000/svg" p-id="17993" width="200" height="200"><path d="M512 64C264.58 64 64 264.58 64 512s200.58 448 448 448 448-200.58 448-448S759.42 64 512 64z m154.2 675.55h-33.8c0 14.64-12.39 27.04-27.04 27.04s-27.04-12.39-27.04-27.04h-131.8c0 14.64-12.39 27.04-27.04 27.04-14.64 0-27.04-12.39-27.04-27.04h-33.8c-10.14 0-20.28-4.51-28.16-11.27-7.89-7.89-11.27-18.02-11.27-28.16V377.95c0-22.53 18.02-39.43 39.43-40.55h40.55v-33.8c0-12.39 4.51-24.78 13.52-32.67 9.01-9.01 20.28-13.52 32.67-13.52h134.05c12.39 0 24.78 4.51 32.67 13.52 9.01 9.01 13.52 20.28 13.52 32.67v33.8h40.55c10.14 0 20.28 4.51 28.16 11.27 7.89 7.89 11.27 18.02 11.27 28.16V699h1.13c0.03 22.53-17.99 40.55-40.53 40.55z" p-id="17994"></path><path d="M418.6 451.8c-11.25 0-20.25 9-20.25 20.25v200.3c0 11.25 9 20.25 20.25 20.25s20.25-9 20.25-20.25v-200.3c0.01-11.25-8.99-20.25-20.25-20.25zM585.14 347.15c0-4.5-1.13-9-4.5-11.25-3.38-3.38-6.75-4.5-11.25-4.5h-115.9c-4.5 0-7.88 1.13-11.25 4.5-3.38 3.38-4.5 6.75-4.5 11.25v24.76h147.41v-24.76zM605.4 451.8c-11.25 0-20.25 9-20.25 20.25v200.3c0 6.75 3.38 13.5 10.13 16.88 6.75 3.38 13.5 3.38 20.25 0s10.13-10.13 10.13-16.88v-200.3a20.18 20.18 0 0 0-20.26-20.25z" p-id="17995"></path></svg>