<svg t="1612669207936" class="icon" viewBox="0 0 1024 1024" version="1.1" xmlns="http://www.w3.org/2000/svg" p-id="15090" width="200" height="200"><path d="M549.59 328.78h-82.82c-8.74 0-15.84 6.51-15.84 14.51v16.03h114.51v-16.03c0-8-7.12-14.51-15.85-14.51z" p-id="15091"></path><path d="M512 64C264.96 64 64 264.96 64 512s200.96 448 448 448 448-200.96 448-448S759.04 64 512 64z m244.3 599.09c0 30.91-31.84 62.67-62.82 62.67H330.52c-30.98 0-62.82-31.77-62.82-62.67V528.43c1.28-6.87 5.33-8.79 15.06-8.79h68.78c11.05 0 14.02 1.76 14.02 13.87v1.66c0 11.39 9.14 20.7 20.32 20.7h34.09c11.18 0 20.32-9.31 20.32-20.7v-2.67c0-10.31 3.01-12.86 14.56-12.86h117.06c9.05 0 11.56 2.46 11.56 11.4v4.12c0 11.39 9.14 20.7 20.32 20.7h33.65c11.18 0 20.32-9.32 20.32-20.7v-4.39c0-9.25 2.95-11.13 13.89-11.13h72.72c6.72 0 10.56 1.9 11.93 7.16v136.29zM389.85 512.22V473.6c0-11.7 6.87-15.04 15.27-15.04 8.4 0 15.27 3.34 15.27 15.04v38.62c0 11.7-6.87 15.04-15.27 15.04-8.39 0.01-15.27-3.34-15.27-15.04z m61.07-38.8c0.01-0.02 0.01-0.04 0.02-0.06v0.92c0-0.28-0.02-0.57-0.02-0.86z m152.69 38.8V473.6c0-11.7 6.87-15.04 15.27-15.04 8.4 0 15.27 3.34 15.27 15.04v38.62c0 11.7-6.87 15.04-15.27 15.04-8.4 0.01-15.27-3.34-15.27-15.04z m152.69-47.85c0 0.02-0.01 0.04-0.01 0.06-0.01-0.79-0.04-1.58-0.08-2.37v2.72c-1.3 5.33-4.96 7.02-12.99 7.02h-72.17c-9.94 0-13.35-1.68-13.35-11.91v-3.63c0-11.4-9.14-20.72-20.32-20.72h-33.64c-11.18 0-20.32 9.33-20.32 20.72v4.59c0 9.53-1.03 10.96-11.38 10.96H454.07c0.02 0.56 0.05 1.12 0.06 1.68-0.03 0.12-0.05 0.23-0.08 0.35v-2.03c-10.96-0.02-13.78-1.17-13.78-12.54v-3c0-11.4-9.14-20.72-20.32-20.72h-34.09c-11.18 0-20.32 9.32-20.32 20.72v2.85c0 11.43-2.74 12.7-14.56 12.7h-67.86c-9.94 0-14.11-1.88-15.42-8.47v-37.31c0-27.77 25.64-56.22 53.29-61.76 3.16-0.63 6.34-0.97 9.52-0.97h91.98v-24.52c0-22.38 18.17-40.53 40.59-40.53h97.93c22.43 0 40.6 18.15 40.6 40.53v24.52h91.88c3.17 0 6.36 0.34 9.52 0.97 27.65 5.54 53.3 33.99 53.3 61.76v38.33z" p-id="15092"></path></svg>