<svg t="1612670587161" class="icon" viewBox="0 0 1024 1024" version="1.1" xmlns="http://www.w3.org/2000/svg" p-id="16843" width="200" height="200"><path d="M773.34 697.17c-41.24 0-74.67-34.32-74.67-76.63s33.43-76.64 74.67-76.64c41.23 0 74.66 34.32 74.66 76.64s-33.44 76.63-74.66 76.63z m-136.9-217.11c-51.85 7.06-184.72 4.45-224 0-39.29-4.42-129.02-15.52-129.02-15.52-20.2 0-36.57-17.02-36.57-37.98l18.3-75.92c7.6-26.69 15.1-36.62 35.3-36.62h423.11c20.21 0 27.68 9.93 35.31 36.62l18.28 75.92c0 20.95-16.37 37.98-36.57 37.98-0.01 0.01-52.28 8.43-104.14 15.52zM263.11 697.17c-41.24 0-74.66-34.32-74.66-76.63s33.42-76.64 74.66-76.64c41.23 0 74.67 34.32 74.67 76.64s-33.44 76.63-74.67 76.63zM960 493.01c0-26.2-32.75-47.45-73.14-47.45-13.13 0-25.42 2.27-36.06 6.19l-55.37-158.06C782.7 272.7 781.1 250.2 760.9 250.2h-87.11l-12.44-63.88c-5.14-18.08-29.59-25.52-49.78-25.52H412.45c-20.2 0-44.81 7.44-49.78 25.52l-12.45 63.88h-87.11c-20.2 0-25.78 25.1-34.54 43.49l-55.35 158.06c-10.65-3.93-22.96-6.19-36.08-6.19-40.4 0-73.14 21.25-73.14 47.45 0 26.2 32.74 47.45 73.14 47.45 0.33 0 0.65-0.04 0.98-0.04 0.19 1.17 0.26 2.27 0.55 3.47-3.4 59.34 29.39 252.48 35.05 281.32 7.36 32.43 19.42 37.98 39.62 37.98H288c20.2 0 32.01-17.03 32.01-37.98v-41.19c9.5 0.98 19.41 1.89 30.21 2.53 117.82 7.1 222.52 7.96 323.56 0 10.63-0.83 20.58-1.85 30.22-2.94v41.6c0 20.95 11.81 37.98 32 37.98h74.67c20.2 0 34.53-15.93 39.61-37.98 11.85-34.43 59.75-237.42 47.27-285.33 35.31-3.34 62.45-23.01 62.45-46.87z" p-id="16844"></path></svg>