<svg t="1612669906489" class="icon" viewBox="0 0 1024 1024" version="1.1" xmlns="http://www.w3.org/2000/svg" p-id="16217" width="200" height="200"><path d="M784.7 64H239.3C142.6 64 64 142.6 64 239.3v545.4C64 881.4 142.6 960 239.3 960h545.4c96.7 0 175.3-78.6 175.3-175.3V239.3C960 142.6 881.4 64 784.7 64z m-11.4 318.9L460.1 696.5c-7.3 7.4-17.3 11.5-27.7 11.5-10.3 0-20.2-4.1-27.6-11.5L250.6 541.9c-9.9-9.9-13.7-24.3-10.1-37.9 3.6-13.5 14.2-24.1 27.7-27.7 13.5-3.6 27.9 0.2 37.8 10.1l126.6 126.9 285.3-285.9c9.9-9.9 24.3-13.8 37.8-10.1 13.5 3.6 24 14.2 27.7 27.7 3.6 13.5-0.2 28-10.1 37.9z" fill="#666666" p-id="16218"></path></svg>