<svg t="1612669867134" class="icon" viewBox="0 0 1024 1024" version="1.1" xmlns="http://www.w3.org/2000/svg" p-id="16092" width="200" height="200"><path d="M784.7 960H239.3C142.6 960 64 881.4 64 784.7V239.3C64 142.6 142.6 64 239.3 64h545.4C881.4 64 960 142.6 960 239.3v545.4c0 96.7-78.6 175.3-175.3 175.3zM239.3 103C164.1 103 103 164.1 103 239.3v545.4c0 75.2 61.2 136.3 136.3 136.3h545.4c75.2 0 136.3-61.2 136.3-136.3V239.3c0-75.2-61.2-136.3-136.3-136.3H239.3z" fill="#666666" p-id="16093"></path></svg>