<svg t="1612670405632" class="icon" viewBox="0 0 1024 1024" version="1.1" xmlns="http://www.w3.org/2000/svg" p-id="16468" width="200" height="200"><path d="M784 450.8c0 65.15-71.93 253.2-271.96 253.2S232 515.96 232 450.8V328.33c0-13.61 10.91-24.33 23.84-24.33H784v146.8z m7.55-152.88V160.17c0-4.5-3.64-8.17-8.08-8.17H87.83C74.5 152 64 163.04 64 176.11v307.77c0 32.29 33.13 176.98 143.81 275.07 128.06 113.22 368.01 161.86 536.06 48.64C887.69 710.32 960 553.37 960 467.54V305.68c0-4.5-3.64-8.17-8.08-8.17H791.55v0.41z" p-id="16469"></path></svg>