<svg t="1612669849687" class="icon" viewBox="0 0 1024 1024" version="1.1" xmlns="http://www.w3.org/2000/svg" p-id="15967" width="200" height="200"><path d="M110.1 960c-12.2 0-23.9-4.8-32.6-13.5-9.7-9.7-14.6-23.1-13.3-36.8l21.7-239c1-10.7 5.7-20.8 13.3-28.4L664.1 77.5c18-18 47.2-18 65.2 0l217.3 217.3c18 18 18 47.2 0 65.2L381.7 924.8c-7.6 7.6-17.7 12.3-28.4 13.3l-239 21.7c-1.4 0.1-2.8 0.2-4.2 0.2z m66.1-264.3L161 863l167.3-15.2 520.5-520.5-152.1-152-520.5 520.4z" fill="#666666" p-id="15968"></path></svg>