<svg t="1612670626517" class="icon" viewBox="0 0 1024 1024" version="1.1" xmlns="http://www.w3.org/2000/svg" p-id="16968" width="200" height="200"><path d="M438.31 634.23H284.09c-24.46 0-44.37 20.34-44.37 45.32s19.91 45.32 44.37 45.32h154.22c24.56 0 44.37-20.34 44.37-45.32s-19.91-45.32-44.37-45.32z" p-id="16969"></path><path d="M805.55 375.02H632.58v-61.49c0-56.32-33.31-107.13-83.02-126.52L255.33 72.12C218.78 57.84 179 62.53 146.39 85.08c-34.83 23.98-55.58 64.69-55.58 108.77v721.36c0 24.69 19.95 44.79 44.45 44.79h452.97c3.94 0 7.73-0.57 11.37-1.53h289.22c24.46 0 44.37-20.23 44.37-45.32V510.66c0-74.73-57.2-135.64-127.64-135.64z m-261.77 495.4H179.81V193.95c0-14.49 6.28-27.55 16.91-34.89 5.77-3.98 14.98-7.86 26.53-3.37l294.22 114.79c15.79 6.12 26.32 23.37 26.32 42.96v556.98z m300.68-2.59h-209.2V465.66h170.29c21.43 0 38.91 20.13 38.91 45.01v357.16z" p-id="16970"></path><path d="M438.31 375.02H284.09c-24.46 0-44.37 20.34-44.37 45.32s19.91 45.32 44.37 45.32h154.22c24.56 0 44.37-20.34 44.37-45.32s-19.91-45.32-44.37-45.32z" p-id="16971"></path></svg>