<svg t="1612670432977" class="icon" viewBox="0 0 1024 1024" version="1.1" xmlns="http://www.w3.org/2000/svg" p-id="16718" width="200" height="200"><path d="M626.06 876.44c-69.27-8-154.62-8-223.9 0-69.27 8-111.95 22.78-111.95 38.78S332.88 946 402.16 954c69.27 8 154.62 8 223.9 0 69.27-8 111.95-22.78 111.95-38.78s-42.68-30.78-111.95-38.78zM496.32 819.89a36.74 36.74 0 0 0 17.46 5.33 52.572 52.572 0 0 0 18.31-6.49 838.838 838.838 0 0 0 150.37-126.28c78.18-82.66 140.74-189.64 142.98-303.38 0.53-114.41-57.77-220.9-153.77-280.54-96.61-58.43-217.42-59.43-314.98-2.6-94.35 54.81-153.91 155.29-157.94 265.27l-0.22 12.22a415.576 415.576 0 0 0 81.09 232.85 829.227 829.227 0 0 0 216.7 203.62zM436.85 309.4c30.23-30.94 76.34-40.18 116.16-23.29 40.02 17.29 65.8 56.85 65.47 100.44 0.09 28.75-11.11 56.38-31.08 76.66a104.775 104.775 0 0 1-75.36 31.44c-43.4-0.2-82.34-26.72-98.42-67.04-16.47-40.52-7.34-86.94 23.23-118.21z" p-id="16719"></path></svg>