<svg t="1612670371423" class="icon" viewBox="0 0 1024 1024" version="1.1" xmlns="http://www.w3.org/2000/svg" p-id="16342" width="200" height="200"><path d="M637.82 641.05v0.04h54.44a571.212 571.212 0 0 0 57.82-182.58h47.38v114.76a455.04 455.04 0 0 1-7.64 68.15h50.25c3.77-22.52 5.72-45.31 5.82-68.15V458.55h32.65v-44.36h-32.58v-36.73H797.6v37.02H622.44v44.25h76.55a484.722 484.722 0 0 1-61.17 182.32zM420.18 296.73h-46.8c-8.51 25.2-11.38 35.31-11.38 35.31H179.82s-2.73-10.11-11.38-35.31h-46.69v35.31H65.93v42.22h178.33v34.87H74.69v45.42h169.56v32.11H74.69v45.42h169.56v32.8H65.93v44.73h161.71S182.08 667.97 64 673.32v47.67s128.22 12.36 206.91-90.04c0 0 53.64 88.22 204.98 90.18V671.6s-101.6 3.05-160.47-62.11h160.47v-44.73H298.91v-32.69h168.44v-45.42H298.91v-32.11h168.44v-45.45H298.91v-34.84h176.98v-42.22h-55.82l0.11-35.3z" p-id="16343"></path><path d="M546.91 308.36v418.91h353.35c33.05-0.1 59.79-26.95 59.75-60V308.36h-413.1z m367.05 358.91c0.02 3.86-1.5 7.58-4.22 10.32a14.55 14.55 0 0 1-10.29 4.3H592.51V353.27h321.45v314z" p-id="16344"></path></svg>