<svg t="1612670685515" class="icon" viewBox="0 0 1024 1024" version="1.1" xmlns="http://www.w3.org/2000/svg" p-id="17220" width="200" height="200"><path d="M683.6 716.98l67.2-47.86 63.57 47.86H683.6zM306.1 580.76l-104.8-54.48c-31.06-16.53-43.04-16.44-89.45 1.09L64 545.44l90.54 92.53 151.56-57.21zM895.37 377.8l-196.51 74.19-247.74-132.58c-29.42-13.26-30.33-15.8-51.04-7.99l-88.18 33.33c-27.42 10.17-14.35 19.71 27.51 65.2l124.05 131.04-311.74 117.69c31.06 4.72 219.76 19.07 262.62 3l514.71-194.43c24.7-9.26 37.14-36.87 27.88-61.66-9.35-24.7-36.95-37.14-61.56-27.79z" p-id="17221"></path></svg>