<svg t="1612670882683" class="icon" viewBox="0 0 1024 1024" version="1.1" xmlns="http://www.w3.org/2000/svg" p-id="18119" width="200" height="200"><path d="M512 64C264.96 64 64 264.96 64 512s200.96 448 448 448 448-200.96 448-448S759.04 64 512 64z m153.6 320.2c0 29.9-8.5 53.45-25.5 70.66-17 17.2-42.5 27.65-76.49 31.33H665.6v51.61H563.61v51H665.6v51H563.61v102.6H461V639.8H358.4v-51H461v-51H358.4v-51.6H461c-34-3.69-59.6-14.13-76.8-31.33-17.2-17.2-25.8-40.76-25.8-70.66V281.6H461v102.6c0 13.93 5.02 25.91 15.05 35.94 10.04 10.04 22.02 15.05 35.94 15.05 14.34 0 26.52-5.02 36.56-15.05 10.04-10.04 15.05-22.02 15.05-35.94V281.6h102v102.6z" p-id="18120"></path></svg>