<svg t="1612670791429" class="icon" viewBox="0 0 1024 1024" version="1.1" xmlns="http://www.w3.org/2000/svg" p-id="17609" width="200" height="200"><path d="M371.21 861.66l4.4-10.1c0.5-1.2 1-1.9 1.5-2.2s1.3-0.1 2.4 0.3l0.9 0.4 0.8-1.8-11.9-5.1-0.8 1.8c1.9 0.8 3 1.6 3.4 2.2 0.3 0.6 0.2 1.7-0.5 3.3l-0.6 1.4c-0.5 1.1-1 1.9-1.4 2.4-0.5 0.5-1.2 0.9-2.2 1.2-1 0.3-2.1 0.4-3.2 0.3-1.2-0.1-2.3-0.4-3.4-0.8-1.9-0.8-3.6-2.2-4.8-4-1.3-1.8-2-4-2.1-6.5-0.1-2.5 0.3-5 1.4-7.5 1.3-3.5 3.6-6 6.7-7.5 3.1-1.6 6.1-1.7 9-0.5 2.2 1 3.9 2.4 4.9 4.4 1 2 1.6 4.6 1.6 7.8l2.2 0.2 1.5-10.1-1.5-0.7-1.6 1.6c-1.4-2.6-3.6-4.5-6.6-5.8-4-1.7-8-1.7-12.1 0s-7.1 4.7-8.9 8.9c-1.9 4.4-2.1 8.7-0.5 12.7s4.4 6.9 8.6 8.7c3.3 1.4 6.8 1.7 10.7 1v3.1l2.1 0.9zM412.01 844.36c2.3 0.7 4.2 1.9 5.4 3.8 1.3 1.8 2.1 4.4 2.6 7.5l2.2-0.1 0.2-10.2-1.6-0.5-1.3 1.8c-1.8-2.4-4.2-4-7.3-4.9-4.2-1.2-8.2-0.7-12 1.5-3.9 2.2-6.4 5.6-7.7 10-1.3 4.6-1 8.9 1.1 12.7 2.1 3.8 5.3 6.3 9.6 7.6 3.4 1 7 0.8 10.8-0.4l0.4 3 2.2 0.6 3-10.6c0.4-1.3 0.8-2 1.2-2.4 0.4-0.3 1.2-0.3 2.4 0l1 0.3 0.5-1.8-12.4-3.6-0.5 1.8c2 0.6 3.2 1.2 3.6 1.7 0.4 0.6 0.4 1.7-0.1 3.3l-0.4 1.5c-0.3 1.2-0.7 2-1.1 2.6-0.4 0.5-1.1 1-2.1 1.4-1 0.4-2 0.6-3.2 0.7-1.2 0.1-2.3-0.1-3.4-0.4-2-0.6-3.8-1.7-5.3-3.3s-2.4-3.7-2.9-6.2-0.3-5 0.4-7.6c0.9-3.5 2.9-6.3 5.8-8.2 2.9-2 5.8-2.5 8.9-1.6zM226.82 757.17l20.3-16.6c1.1-0.9 2-1.4 2.7-1.3 0.7 0 1.5 0.5 2.3 1.5l0.4 0.5 1.5-1.2-6.8-8.3-1.5 1.2 0.5 0.6c0.7 0.9 1 1.7 0.9 2.4-0.1 0.7-0.7 1.5-1.8 2.5l-14.1 11.5 9.3-26.4-6.2-7.6-1.5 1.2 0.5 0.7c0.7 0.8 1 1.4 1.2 1.9 0.1 0.5 0 0.9-0.3 1.3s-0.9 1-1.8 1.7l-15.7 12.8c-1.3 1-2.2 1.6-2.9 1.6s-1.5-0.5-2.4-1.7l-0.4-0.4-1.5 1.2 6.8 8.4 1.5-1.2c-1.2-1.4-1.7-2.5-1.5-3.2 0.2-0.7 0.9-1.5 2.1-2.5l17.6-14.4-11 31.7 1.8 2.1zM439.01 871.06c-0.6 3.9 0.2 6.9 2.5 9.2 2.2 2.3 4.9 3.7 8 4.2 3.6 0.6 6.8-0.1 9.5-1.9 2.7-1.8 4.3-4.7 4.9-8.6l2.2-14.5c0.2-1.3 0.5-2.1 1-2.5s1.4-0.5 2.6-0.3l0.7 0.1 0.3-1.9-10.5-1.6-0.3 1.9 0.9 0.1c1.2 0.2 2 0.6 2.3 1.2 0.3 0.6 0.4 1.5 0.2 2.8l-2.1 13.6c-0.4 2.9-1.1 4.8-2.1 5.9-0.9 1.1-2.2 1.9-3.8 2.5-1.6 0.6-3.2 0.7-4.8 0.5-1.5-0.2-2.9-0.8-4.2-1.7-1.3-0.9-2.2-2.1-2.8-3.4-0.5-1.4-0.6-3.4-0.2-6.1l2.2-14.2c0.2-1.3 0.5-2.1 1-2.5 0.5-0.4 1.3-0.5 2.7-0.3l0.8 0.1 0.3-1.9-12.2-1.9-0.3 1.9 1.2 0.2c1.2 0.2 1.9 0.5 2.2 1 0.3 0.5 0.4 1.4 0.2 2.7l-2.4 15.4zM325.12 805.96l0.5 33.6 2.4 1.4 13.3-22.5c0.7-1.2 1.4-2 2.1-2.2 0.7-0.2 1.6 0 2.7 0.6l0.5 0.3 1-1.7-9.2-5.4-1 1.7 0.7 0.4c1 0.6 1.5 1.2 1.7 1.9 0.2 0.7-0.1 1.7-0.9 3l-9.2 15.7-0.4-28-8.4-5-1 1.7 1.3 0.8c0.6 0.4 0.9 0.7 1.1 1 0.3 0.4 0.3 0.8 0.2 1.3-0.2 0.5-0.5 1.2-1.1 2.2l-10.3 17.4c-0.8 1.4-1.5 2.2-2.2 2.5-0.6 0.3-1.6 0-2.9-0.8l-0.5-0.3-1 1.7 9.3 5.5 1-1.7c-1.6-1-2.5-1.8-2.5-2.5-0.1-0.7 0.3-1.7 1.1-3.1l11.7-19.5zM274.02 772.77l4.2-9-1.2-1.2-0.9 0.6-13.1-12.8 0.6-0.9-1.1-1.1-8.9 4.4 1 2c2.3-1 4.3-1.5 5.8-1.6 1.5 0 3.2 0.8 5 2.6 0.5 0.5 0.8 0.9 0.8 1.2s-0.3 0.7-0.8 1.2l-15.8 16.2c-0.7 0.7-1.3 1.2-1.7 1.4-0.4 0.2-0.9 0.2-1.4-0.1-0.5-0.3-1.2-0.8-2.1-1.7l-1.3 1.4 8.8 8.6 1.3-1.4c-1.1-1-1.7-1.9-1.9-2.6-0.2-0.7 0.3-1.6 1.4-2.8l15.4-15.8c0.7-0.7 1.2-1 1.5-1s0.8 0.3 1.5 1c1.6 1.5 2.4 3.1 2.5 4.6 0.1 1.5-0.4 3.5-1.4 5.9l1.8 0.9zM581.3 146.6l-7.9-15.9-7.9 15.9-17.6 2.6 12.7 12.4-3 17.49 15.7-8.29 15.7 8.29-3-17.49 12.7-12.4zM762.59 261.39l5.3 17 10.3-14.5 17.8 0.2-10.6-14.2 5.6-16.9-16.8 5.7-14.2-10.6 0.2 17.8-14.5 10.3zM670.8 197.29l9.5 15 6.2-16.7 17.2-4.4-13.9-11 1.2-17.69-14.8 9.9-16.5-6.6 4.8 17.09-11.5 13.7zM527.61 792.36c-77 4.3-155.39-23-214.19-81.8-58.8-58.8-86.1-137.19-81.8-214.19l-6.3-6.3c-6.1 80.7 21.7 163.49 83.4 225.19s144.49 89.5 225.19 83.4l-6.3-6.3zM223.42 696.07l-2-3.2-29 6.7c-1.5 0.4-2.6 0.4-3.3 0.3-0.6-0.2-1.3-0.8-1.9-1.8l-1.6 1 5.1 8 1.6-1c-0.7-1.1-1.1-1.8-1.1-2.3-0.1-0.5 0.1-0.8 0.6-1.1 0.3-0.2 0.8-0.4 1.5-0.5l7.1-1.7 6.2 9.7-4 5.1c-0.8 1-1.3 1.6-1.7 1.8-0.4 0.3-0.8 0.3-1.2 0-0.4-0.2-0.9-0.9-1.6-2l-1.6 1 6.1 9.6 1.6-1-0.3-0.4c-0.5-0.8-0.6-1.5-0.4-2.2 0.2-0.6 0.7-1.5 1.4-2.4l18.5-23.6z m-20.6 3.9l15.6-4.1-10.3 12.5-5.3-8.4zM481.41 226.09l6.1 6.1c79.8-6.9 161.99 20.1 222.99 81.2 61.1 61.1 88.1 143.19 81.2 222.99l6.1 6.1c8.9-83.4-18.7-169.99-82.6-233.89-63.8-63.8-150.4-91.4-233.79-82.5zM485.91 860.76c-3.3 3.1-5 6.9-5.1 11.7-0.1 4.7 1.3 8.7 4.3 11.9 3 3.2 6.8 4.9 11.5 5 4.7 0.1 8.7-1.3 11.8-4.4 3.1-3 4.8-7 4.9-11.8 0.1-4.6-1.3-8.5-4.2-11.8-2.9-3.2-6.6-4.8-11.1-5-4.8-0.1-8.8 1.3-12.1 4.4z m20 2c1.8 2.5 2.7 5.9 2.5 10.2-0.1 4.3-1.2 7.8-3.4 10.4-2.1 2.6-4.9 3.8-8.3 3.7-3.4-0.1-6.1-1.4-8.1-4s-3-6-2.8-10.3c0.1-4.5 1.3-8 3.4-10.4 2.2-2.4 5.1-3.6 8.8-3.5 3.5 0.1 6.1 1.4 7.9 3.9z" p-id="17610"></path><path d="M696.4 327.59c-52.3-52.3-121.29-77.7-189.79-76.3l6.6 6.6c64.6 0.3 129.09 25.1 178.39 74.4 49.3 49.3 74.1 113.79 74.4 178.39l6.7 6.7c1.39-68.5-24.01-137.5-76.3-189.79zM772.69 517.38zM142.02 558.48c1.6 2.4 3.9 4.3 6.7 5.8l1-1.9c-2.2-1.4-4-3-5.4-5-1.4-2-2.2-4-2.4-6-0.3-3.4 0.7-6.3 3-8.9 2.4-2.6 5.6-4.1 9.7-4.5 3.9-0.4 7.3 0.3 10.1 2.2 2.8 1.9 4.4 4.5 4.7 7.7 0.3 2.6-0.3 4.9-1.6 6.8-1.4 1.9-3.5 3.6-6.5 5.2l0.8 2 10.3-4-0.2-1.6-2.2-0.5c1.6-2.8 2.2-5.7 1.9-8.6-0.3-2.8-1.3-5.4-3-7.7s-4-4.1-6.7-5.2c-2.7-1.2-5.5-1.6-8.5-1.3-4.6 0.5-8.3 2.4-11.1 5.8-2.8 3.4-4 7.3-3.5 11.8 0.3 2.9 1.3 5.6 2.9 7.9zM832.19 319.89l-4.4 17.2-16.7 6.2 15 9.5 0.7 17.7 13.7-11.4 17.1 4.8-6.6-16.5 9.9-14.8-17.7 1.2zM258.12 522.88l-6.9-6.9c1 65.4 26.5 130.49 76.3 180.39 49.9 49.9 114.99 75.3 180.39 76.3l-6.9-6.9c-61.3-2.6-121.89-27.4-168.79-74.2-46.7-46.8-71.4-107.3-74.1-168.69z" p-id="17611"></path><path d="M209.42 814.56C89.83 694.97 55.83 522.08 107.43 372.19l-15.7-15.7c-58.7 158.99-24.2 344.58 103.49 472.28S508.51 990.95 667.5 932.26l-15.7-15.7c-149.89 51.6-322.78 17.6-442.38-102zM828.79 195.19C699.2 65.7 510.11 32.1 349.71 94.3l15.6 15.6c151.49-55.2 327.88-22 449.38 99.5s154.69 297.89 99.5 449.38l15.6 15.6c62.09-160.5 28.49-349.59-101-479.19z" p-id="17612"></path><path d="M874.89 424.98l-12.4 12.7-17.5-3 8.3 15.7-8.3 15.7 17.5-2.8 12.4 12.7 2.6-17.6 15.9-7.9-15.9-7.9zM279.52 808.86c3.8 2.9 7.8 4 12.1 3.4 4.3-0.6 8-2.8 10.9-6.7 2.8-3.7 4-7.6 3.5-12-0.5-4.3-2.5-7.9-6-10.6-3.8-2.9-7.9-4.1-12.4-3.6s-8.1 2.7-11 6.4c-2.9 3.7-4.1 7.8-3.5 12.1 0.6 4.5 2.7 8.2 6.4 11z m1-19.7c2.8-3.6 5.7-5.7 8.9-6.4 3.2-0.7 6.2 0.1 9.1 2.3 2.7 2.1 4.1 4.7 4.1 7.8 0 3.1-1.3 6.4-4 9.8-2.6 3.4-5.5 5.5-8.8 6.3-3.3 0.8-6.2 0.2-8.9-1.8-2.7-2.1-4.1-4.7-4.2-8-0.1-3.3 1.1-6.6 3.8-10zM152.32 606.87c0.4-0.2 1-0.5 2-0.7l21.2-4.9c1.4-0.3 2.3-0.3 2.7 0 0.4 0.3 0.8 1 1 2l0.2 1 1.9-0.4-2.8-11.9-1.9 0.4 0.3 1.2c0.3 1.2 0.2 2-0.1 2.4-0.4 0.4-1.3 0.8-2.7 1.1l-8.4 2-3.7-16.1 8.7-2c1.4-0.3 2.4-0.4 2.8-0.1 0.5 0.3 0.9 1.1 1.2 2.4l0.2 0.8 1.9-0.4-2.8-12-1.9 0.4 0.3 1.3c0.2 1 0.2 1.8-0.1 2.2-0.3 0.4-1.1 0.8-2.4 1.1l-21.4 5c-1.3 0.3-2.2 0.3-2.5-0.1-0.4-0.3-0.7-1.1-1-2.4l-0.2-0.8-1.9 0.4 2.8 12 1.9-0.4c-0.4-1.8-0.6-2.9-0.5-3.4 0.1-0.5 1-0.9 2.6-1.3l9.9-2.3 3.7 16.1-10.3 2.4c-0.8 0.2-1.4 0.2-1.7 0.2-0.4 0-0.8-0.2-1-0.6-0.2-0.4-0.5-1-0.7-2l-0.2-0.9-1.9 0.4 2.8 11.9 1.9-0.4c-0.3-1.2-0.4-2.1-0.4-2.7 0-0.3 0.2-0.7 0.5-0.9zM167.62 647.57l23.2-19-1.3-3.5-29.8 0.2c-1.6 0-2.7-0.1-3.3-0.5-0.6-0.3-1.1-1-1.5-2.2l-1.8 0.7 3.3 9 1.8-0.7c-0.4-1.2-0.6-2-0.6-2.5s0.3-0.8 0.8-1c0.4-0.1 0.9-0.2 1.6-0.2l7.3-0.1 4 10.9-5 4.1c-0.9 0.8-1.6 1.2-2.1 1.4-0.5 0.2-0.9 0.1-1.2-0.2-0.3-0.3-0.7-1.1-1.1-2.3l-1.8 0.7 3.9 10.7 1.8-0.7-0.2-0.5c-0.3-0.9-0.3-1.6 0-2.3 0.5-0.5 1.1-1.2 2-2z m2.2-19.6l16.1-0.6-12.7 9.9-3.4-9.3zM203.82 673.77c1.3 0.1 2.2 0.3 2.6 0.7 0.4 0.3 0.8 1 1.3 2l1.7-0.9-4.4-8.8-1.7 0.9 0.5 1c0.3 0.7 0.5 1.2 0.5 1.5 0 0.3-0.1 0.5-0.4 0.7-0.3 0.1-0.8 0.2-1.7 0.1l-13.7-0.9 7.6-10.6c0.5-0.8 1-1.3 1.4-1.5 0.5-0.3 1.1 0.2 1.6 1.3l0.6 1.2 1.7-0.9-5.3-10.7-1.7 0.9c0.4 0.9 0.7 1.7 0.8 2.2 0.1 0.5-0.3 1.4-1.2 2.8l-9.7 14.2-6.5 3.2c-1.2 0.6-2.1 0.8-2.6 0.7-0.5-0.1-1.1-0.8-1.7-2l-0.4-0.9-1.7 0.9 5.5 11.2 1.7-0.9c-0.7-1.4-1.1-2.5-1.1-3.1 0.2-0.7 0.9-1.3 2.4-2.1l7.2-3.6 16.7 1.4zM319.14 205.84c3.31-0.27 5.83-1.27 7.56-3.01 3.47-3.47 4.5-7.86 3.09-13.17-1.41-5.31-4.28-11.87-8.62-19.68l-3.09 1.46c1.08 5.85-1.14 13.5-6.67 22.93-2.28 3.79-2.22 6.88 0.16 9.27 1.74 1.74 4.26 2.47 7.57 2.2z" p-id="17613"></path><path d="M237.82 168.44c6.23-2.55 11.3-6.1 15.21-10.65l106.36 106.36-24.07 10.73 1.46 3.74c9.86-0.33 17.78-0.22 23.74 0.33 5.96 0.54 10.3 2.17 13.01 4.88 2.71 2.71 4.42 3.72 5.12 3.01 0.7-0.7 1.06-2.36 1.06-4.96l-0.98-26.67-15.78 3.42L257.1 152.74c2.38-3.68 4.71-7.54 6.99-11.55L261 138.1c-2.82 3.68-6.97 6.64-12.44 8.86-5.48 2.22-10.71 3.33-15.69 3.33-4.99 0-8.73 1.25-11.22 3.74-1.74 1.74-2.6 3.63-2.6 5.69 0 2.06 1.03 4.12 3.09 6.18 4.22 4.25 9.45 5.09 15.68 2.54z" p-id="17614"></path><path d="M163.34 261.79c3.85 1.36 6.5 2 7.97 1.95 1.46-0.05 2.74-0.62 3.82-1.71l7.32-7.32 33.01 33.01-14.31 14.31c-7.05 7.05-12.25 12.14-15.61 15.29l-8.62 7.97c-1.95 1.95-2.58 3.28-1.87 3.98 0.7 0.7 3.58 2.06 8.62 4.07 5.04 2 8.16 2.41 9.35 1.22l7.48-8.46c3.47-3.69 7.43-7.75 11.87-12.2l14.64-14.64 32.85 32.85-8.46 8.46c-1.63 1.63-1.87 3.01-0.73 4.15 1.14 1.14 4.15 2.31 9.03 3.5 4.88 1.19 8.13 0.98 9.76-0.65l7.16-8.13c2.71-3.15 5.85-6.51 9.43-10.08l33.18-33.18 6.67 1.14c1.95 0.43 3.2 0.38 3.74-0.16s0.7-1.9 0.49-4.07L328 275.05l-13.66 0.98-32.04-32.04 14.96-14.96 5.37 0.81c0.97 0.11 1.98 0.19 3.01 0.24 1.03 0.05 1.79-0.16 2.28-0.65 0.49-0.49 0.08-2.03-1.22-4.64l-9.59-19.68c-5.2 5.85-9.98 10.95-14.31 15.29l-12.04 12.04-30.41-30.41-8.13-21.79c-5.32 6.18-10.08 11.38-14.31 15.61l-35.29 35.29c-7.05 7.05-12.25 12.14-15.61 15.29l-8.94 7.97c-1.95 1.95-2.52 3.33-1.71 4.15 0.8 0.8 3.13 1.89 6.98 3.24z m100.91 65.95l-32.85-32.85 21.31-21.31 32.85 32.85-21.31 21.31z m13.34-79.04l32.85 32.85-20.49 20.49-32.85-32.85 20.49-20.49z m-44.56-44.56l33.01 33.01-20.49 20.49-33.01-33.01 20.49-20.49z m-24.89 24.88l33.01 33.01-21.31 21.31-33.01-33.01 21.31-21.31zM442.83 298.14a780.665 780.665 0 0 1-26.35 27.65l-13.82 13.82-16.1-16.1c-4.99-4.99-9.22-9.76-12.69-14.31l-1.3 12.69c4.01 1.63 8.29 4.72 12.85 9.27L398.26 344l-31.06 31.06-43.42-18.38-1.95 16.59c-0.22 1.52-0.11 2.49 0.32 2.93 0.43 0.43 1.62 0.54 3.58 0.33 5.09-0.33 16.26 1.84 33.5 6.51l-42.12 42.12c-2.17 2.17-4.2 3.28-6.1 3.33-1.9 0.05-4.42-1.49-7.56-4.63-3.15-3.15-7.75-8.95-13.82-17.4l-3.9 1.63c7.26 13.12 8.89 22.77 4.88 28.95-1.3 1.95-1.49 3.39-0.57 4.31 0.92 0.92 4.25 2.14 10 3.66s10.33 1.98 13.74 1.38c3.42-0.6 6.91-2.68 10.49-6.26l52.37-52.37 34.15 9.43 1.3-3.25-29.27-12.36 26.51-26.51 21.14 21.14c1.41 1.41 2.46 1.76 3.17 1.06 0.7-0.7 1.11-1.87 1.22-3.5l1.46-18.38-16.26 1.63-6.34-6.34 27-27 7.32 0.49c1.84 0.33 3.12 0.14 3.82-0.57 0.7-0.7 0.62-2.14-0.24-4.31l-8.79-21.15zM451.44 366.28l-92.05 92.05c-4.55 4.55-9.97 5.53-16.26 2.93l-2.11 16.1c-0.22 2.17-0.06 3.52 0.49 4.07 0.54 0.54 1.63 0.76 3.25 0.65 7.59-0.65 15.83-0.43 24.72 0.65l29.27 3.9 0.49-2.76L366.87 472l64.57-64.57 21.47 21.47c1.52 1.52 2.55 2.01 3.09 1.46 0.54-0.54 0.81-1.57 0.81-3.09l1.63-18.21-15.13 1.14-7.32-7.32 37.08-37.08 8.13 0.65c1.73 0.22 2.9 0.03 3.5-0.57 0.59-0.59 0.62-1.92 0.08-3.98l-7.16-23.09a794.099 794.099 0 0 1-26.18 27.47zM516.01 374.58a794.774 794.774 0 0 1-26.18 27.49l-99.86 99.86c-4.34 4.34-6.97 7.99-7.89 10.98-0.92 2.98-0.24 6.42 2.03 10.33 2.28 3.9 7.64 10.08 16.1 18.54 8.46 8.46 15.64 13.04 21.55 13.74 5.91 0.7 9.57 0.35 10.98-1.06 0.98-0.98 1.19-2.6 0.65-4.88-0.65-5.42 3.41-12.52 12.2-21.31 3.36-3.36 7.48-7.05 12.36-11.06l-2.77-2.77c-11.71 8.67-20.14 14.39-25.29 17.16-5.15 2.76-9.08 3.88-11.79 3.33-2.71-0.54-6.18-2.93-10.41-7.16s-6.83-7.43-7.81-9.6c-0.98-2.17 1.08-5.8 6.18-10.9l57.41-57.41c9.54 3.25 18.16 5.8 25.86 7.64 7.7 1.84 13.23 3.53 16.59 5.04 3.36 1.52 5.72 2.95 7.07 4.31 1.35 1.35 2.44 1.63 3.25 0.81 0.81-0.81 1.22-2.52 1.22-5.12l0.16-19.03c-17.02 2.71-33.61 3.36-49.77 1.95l41.96-41.96 10.41-0.65c1.84-0.11 3.12-0.51 3.82-1.22 0.7-0.7 0.68-2.2-0.08-4.47l-7.95-22.58zM574.88 495.9c1.95 0.22 3.2 0.06 3.74-0.49 0.54-0.54 0.54-1.63 0-3.25l-6.18-19.84c-4.77 4.77-10.25 9.49-16.43 14.15l-26.35 20.82c-6.07 4.99-10.27 7.67-12.6 8.05-2.33 0.38-5.02 0.03-8.05-1.06v12.36c0.11 1.63 0.38 2.66 0.81 3.09 0.43 0.43 1.3 0.76 2.6 0.98l9.76 1.3 30.9 30.9c-13.88 12.36-25.51 21.77-34.88 28.22-9.38 6.45-16.08 10.16-20.09 11.14-4.01 0.97-7.75-0.27-11.22-3.74-3.47-3.47-8.94-11.44-16.42-23.91l-3.9 2.28c4.66 10.51 7.18 17.7 7.56 21.55 0.38 3.85-0.84 7.4-3.66 10.65-1.3 1.51-1.44 2.79-0.41 3.82 1.03 1.03 5.15 2.65 12.36 4.88 7.21 2.22 12.93 2.73 17.16 1.54s11.55-5.37 21.96-12.52c10.41-7.16 23.96-17.78 40.66-31.88l6.83 0.65c1.19 0.11 2.03-0.08 2.52-0.57 0.49-0.49 0.68-1.44 0.57-2.85l-0.81-15.45-13.5 1.46-3.42-3.42 63.1-49.44 6.67 2.11c1.95 0.65 3.2 0.71 3.74 0.16 0.54-0.54 0.76-1.73 0.65-3.58l-1.46-17.73-13.01 1.95-27.49-27.49c-4.99-4.99-9.22-9.76-12.69-14.31l-2.11 12.2c4.01 1.63 8.29 4.72 12.85 9.27l24.88 24.88-65.38 51.72-17.4-17.4 42.45-32.04 5.69 0.84z" p-id="17615"></path><path d="M705.32 576.57c1.63 0.98 2.63 1.28 3.01 0.89 0.38-0.38 0.62-1.27 0.73-2.68l-0.16-21.31c-17.13 2.82-32.96 4.44-47.49 4.88-4.55-14.31-11.5-32.2-20.82-53.67l-3.25 1.63c5.2 15.18 9.65 32.74 13.34 52.69-26.78 0.33-49.87-2.06-69.28-7.16l-1.14 3.41c18 8.24 42.18 13.45 72.54 15.61 3.58 20.49 4.93 36.38 4.07 47.65-0.44 6.51 0.19 10.6 1.87 12.28 1.68 1.68 3.66 1.98 5.94 0.89 2.27-1.09 4.17-2.38 5.69-3.9 1.52-1.52 2.57-2.96 3.17-4.31 0.59-1.36 0.97-2.66 1.14-3.9 0.16-1.25-0.11-4.39-0.81-9.43-0.71-5.04-1.82-10.98-3.33-17.81-1.52-6.83-3.2-13.77-5.04-20.82 4.44 0.32 11.11 0.54 20 0.65 8.86 0.13 15.48 1.59 19.82 4.41zM473.89 550.71c4.34 1.08 11.43 4.39 21.31 9.92l33.01 17.73 2.76-3.74-55.95-43.91-4.23 15.61c-0.54 1.63-0.57 2.68-0.08 3.17 0.49 0.49 1.55 0.9 3.18 1.22z" p-id="17616"></path><path d="M639.53 630c2.55 1.14 4.17 1.36 4.88 0.65 0.7-0.7 0.84-2.25 0.41-4.63l-4.23-20.49c-23.85 17.35-43.97 27.81-60.34 31.39 2.71-20.49 9.92-41.04 21.63-61.64l-3.74-2.77c-16.91 22.12-27.49 44.4-31.71 66.84-19.3 2.17-47.33-3.74-84.08-17.73l-2.44 3.74c34.8 18.32 63.16 27.48 85.06 27.48-0.87 12.58-0.11 25.69 2.28 39.36 2.39 13.66 4.23 21.14 5.53 22.44 0.76 0.76 2.09 0.68 3.98-0.24 1.9-0.92 4.85-0.84 8.86 0.24s7.54 3.14 10.57 6.18l2.11-2.44c-12.58-20.6-18.81-42.77-18.7-66.52 14.85-1.84 31.39-8.3 49.6-19.35 4.34-2.81 7.78-3.65 10.33-2.51zM718.33 717.74c-7.92 7.92-16.64 15.67-26.18 23.26-2.28 1.84-3.66 3.28-4.15 4.31-0.49 1.03-0.3 1.98 0.57 2.85 0.87 0.87 2.82 2.01 5.85 3.41 3.03 1.41 5.42 2.12 7.16 2.12 1.73 0 3.52-0.92 5.37-2.77l5.37-5.37 27.97 27.97-7.16 7.16c-1.41 1.41-1.65 2.57-0.73 3.5 0.92 0.92 3.69 2.06 8.3 3.42 4.61 1.35 7.78 1.17 9.51-0.57l6.99-7.97c2.49-3.14 5.64-6.61 9.43-10.41l22.28-22.28 6.51 1.3c1.52 0.43 2.57 0.35 3.17-0.24 0.59-0.59 0.73-1.71 0.41-3.33l-1.3-19.19-14.96 2.28-23.91-23.91-5.04-21.96c-5.64 6.29-11.87 12.85-18.7 19.68l-16.76 16.74z m61.8 15.94l-35.45 35.45-27.97-27.97 35.45-35.45 27.97 27.97z" p-id="17617"></path><path d="M859.01 724.08l-14.64 3.58-85.38-85.38-5.69-23.26c-4.66 5.75-11.82 13.45-21.47 23.09l-73.02 73.02a535.685 535.685 0 0 1-36.92 33.66c-1.19 0.97-2.44 2.11-3.74 3.42-1.3 1.3-1.3 2.6 0 3.9 0.87 0.87 3.22 2.09 7.07 3.66 3.85 1.57 6.48 2.3 7.89 2.2 1.41-0.11 2.87-0.92 4.39-2.44l10.9-10.9 88.47 88.47-14.15 14.15c-1.41 1.41-1.52 2.71-0.33 3.9s4.23 2.82 9.11 4.88c4.88 2.06 8.35 2.06 10.41 0l12.69-14.96c5.53-6.4 12.14-13.44 19.84-21.14l75.46-75.46 7.32 1.79c2.17 0.44 3.5 0.41 3.98-0.08 0.49-0.49 0.62-1.71 0.41-3.66l-2.6-22.44zM741.26 832.72l-88.47-88.47 99.69-99.69 88.47 88.47-99.69 99.69z" p-id="17618"></path></svg>