<svg t="1612670835741" class="icon" viewBox="0 0 1024 1024" version="1.1" xmlns="http://www.w3.org/2000/svg" p-id="17867" width="200" height="200"><path d="M762.6 960H241.3c-38.7 0-70.2-31.5-70.2-70.2V348.4c0-16.6 13.5-30.1 30.1-30.1s30.1 13.5 30.1 30.1v541.4c0 5.5 4.5 10 10 10h521.3c5.5 0 10-4.5 10-10V348.4c0-16.6 13.5-30.1 30.1-30.1s30.1 13.5 30.1 30.1v541.4c0 38.7-31.5 70.2-70.2 70.2z" fill="#666666" p-id="17868"></path><path d="M404 819.6c-16.6 0-30.1-13.5-30.1-30.1V357.3c0-16.6 13.5-30.1 30.1-30.1s30.1 13.5 30.1 30.1v432.3c-0.1 16.6-13.5 30-30.1 30zM602.2 819.6c-16.6 0-30.1-13.5-30.1-30.1V357.3c0-16.6 13.5-30.1 30.1-30.1s30.1 13.5 30.1 30.1v432.3c0 16.6-13.5 30-30.1 30zM684.2 124.2H341.6c-16.6 0-30.1-13.5-30.1-30.1S325 64 341.6 64h342.6c16.6 0 30.1 13.5 30.1 30.1s-13.5 30.1-30.1 30.1zM882.9 249.6H141.1c-16.6 0-30.1-13.5-30.1-30.1s13.5-30.1 30.1-30.1H883c16.6 0 30.1 13.5 30.1 30.1s-13.6 30.1-30.2 30.1z" fill="#666666" p-id="17869"></path></svg>