<svg t="1612670769347" class="icon" viewBox="0 0 1024 1024" version="1.1" xmlns="http://www.w3.org/2000/svg" p-id="17476" width="200" height="200"><path d="M203.82 673.77c1.3 0.1 2.2 0.3 2.6 0.7 0.4 0.3 0.8 1 1.3 2l1.7-0.9-4.4-8.8-1.7 0.9 0.5 1c0.3 0.7 0.5 1.2 0.5 1.5 0 0.3-0.1 0.5-0.4 0.7-0.3 0.1-0.8 0.2-1.7 0.1l-13.7-0.9 7.6-10.6c0.5-0.8 1-1.3 1.4-1.5 0.5-0.3 1.1 0.2 1.6 1.3l0.6 1.2 1.7-0.9-5.3-10.7-1.7 0.9c0.4 0.9 0.7 1.7 0.8 2.2 0.1 0.5-0.3 1.4-1.2 2.8l-9.7 14.2-6.5 3.2c-1.2 0.6-2.1 0.8-2.6 0.7-0.5-0.1-1.1-0.8-1.7-2l-0.4-0.9-1.7 0.9 5.5 11.2 1.7-0.9c-0.7-1.4-1.1-2.5-1.1-3.1 0.2-0.7 0.9-1.3 2.4-2.1l7.2-3.6 16.7 1.4zM223.42 696.07l-2-3.2-29 6.7c-1.5 0.4-2.6 0.4-3.3 0.3-0.6-0.2-1.3-0.8-1.9-1.8l-1.6 1 5.1 8 1.6-1c-0.7-1.1-1.1-1.8-1.1-2.3-0.1-0.5 0.1-0.8 0.6-1.1 0.3-0.2 0.8-0.4 1.5-0.5l7.1-1.7 6.2 9.7-4 5.1c-0.8 1-1.3 1.6-1.7 1.8-0.4 0.3-0.8 0.3-1.2 0-0.4-0.2-0.9-0.9-1.6-2l-1.6 1 6.1 9.6 1.6-1-0.3-0.4c-0.5-0.8-0.6-1.5-0.4-2.2 0.2-0.6 0.7-1.5 1.4-2.4l18.5-23.6z m-20.6 3.9l15.6-4.1-10.3 12.5-5.3-8.4zM226.82 757.17l20.3-16.6c1.1-0.9 2-1.4 2.7-1.3 0.7 0 1.5 0.5 2.3 1.5l0.4 0.5 1.5-1.2-6.8-8.3-1.5 1.2 0.5 0.6c0.7 0.9 1 1.7 0.9 2.4-0.1 0.7-0.7 1.5-1.8 2.5l-14.1 11.5 9.3-26.4-6.2-7.6-1.5 1.2 0.5 0.7c0.7 0.8 1 1.4 1.2 1.9 0.1 0.5 0 0.9-0.3 1.3s-0.9 1-1.8 1.7l-15.7 12.8c-1.3 1-2.2 1.6-2.9 1.6-0.7 0-1.5-0.5-2.4-1.7l-0.4-0.4-1.5 1.2 6.8 8.4 1.5-1.2c-1.2-1.4-1.7-2.5-1.5-3.2 0.2-0.7 0.9-1.5 2.1-2.5l17.6-14.4-11 31.7 1.8 2.1zM325.12 805.96l0.5 33.6 2.4 1.4 13.3-22.5c0.7-1.2 1.4-2 2.1-2.2 0.7-0.2 1.6 0 2.7 0.6l0.5 0.3 1-1.7-9.2-5.4-1 1.7 0.7 0.4c1 0.6 1.5 1.2 1.7 1.9 0.2 0.7-0.1 1.7-0.9 3l-9.2 15.7-0.4-28-8.4-5-1 1.7 1.3 0.8c0.6 0.4 0.9 0.7 1.1 1 0.3 0.4 0.3 0.8 0.2 1.3-0.2 0.5-0.5 1.2-1.1 2.2l-10.3 17.4c-0.8 1.4-1.5 2.2-2.2 2.5-0.6 0.3-1.6 0-2.9-0.8l-0.5-0.3-1 1.7 9.3 5.5 1-1.7c-1.6-1-2.5-1.8-2.5-2.5-0.1-0.7 0.3-1.7 1.1-3.1l11.7-19.5zM481.41 226.09l6.1 6.1c79.8-6.9 161.99 20.1 222.99 81.2 61.1 61.1 88.1 143.19 81.2 222.99l6.1 6.1c8.9-83.4-18.7-169.99-82.6-233.89-63.8-63.8-150.4-91.4-233.79-82.5zM762.59 261.39l5.3 17 10.3-14.5 17.8 0.2-10.6-14.2 5.6-16.9-16.8 5.7-14.2-10.6 0.2 17.8-14.5 10.3z" p-id="17477"></path><path d="M696.4 327.59c-52.3-52.3-121.29-77.7-189.79-76.3l6.6 6.6c64.6 0.3 129.09 25.1 178.39 74.4 49.3 49.3 74.1 113.79 74.4 178.39l6.7 6.7c1.39-68.5-24.01-137.5-76.3-189.79zM772.69 517.38zM581.3 146.6l-7.9-15.9-7.9 15.9-17.6 2.6 12.7 12.4-3 17.49 15.7-8.29 15.7 8.29-3-17.49 12.7-12.4zM670.8 197.29l9.5 15 6.2-16.7 17.2-4.4-13.9-11 1.2-17.69-14.8 9.9-16.5-6.6 4.8 17.09-11.5 13.7zM412.01 844.36c2.3 0.7 4.2 1.9 5.4 3.8 1.3 1.8 2.1 4.4 2.6 7.5l2.2-0.1 0.2-10.2-1.6-0.5-1.3 1.8c-1.8-2.4-4.2-4-7.3-4.9-4.2-1.2-8.2-0.7-12 1.5-3.9 2.2-6.4 5.6-7.7 10-1.3 4.6-1 8.9 1.1 12.7s5.3 6.3 9.6 7.6c3.4 1 7 0.8 10.8-0.4l0.4 3 2.2 0.6 3-10.6c0.4-1.3 0.8-2 1.2-2.4 0.4-0.3 1.2-0.3 2.4 0l1 0.3 0.5-1.8-12.4-3.6-0.5 1.8c2 0.6 3.2 1.2 3.6 1.7 0.4 0.6 0.4 1.7-0.1 3.3l-0.4 1.5c-0.3 1.2-0.7 2-1.1 2.6-0.4 0.5-1.1 1-2.1 1.4-1 0.4-2 0.6-3.2 0.7-1.2 0.1-2.3-0.1-3.4-0.4-2-0.6-3.8-1.7-5.3-3.3-1.5-1.6-2.4-3.7-2.9-6.2s-0.3-5 0.4-7.6c0.9-3.5 2.9-6.3 5.8-8.2 2.9-2 5.8-2.5 8.9-1.6zM485.91 860.76c-3.3 3.1-5 6.9-5.1 11.7-0.1 4.7 1.3 8.7 4.3 11.9 3 3.2 6.8 4.9 11.5 5s8.7-1.3 11.8-4.4c3.1-3 4.8-7 4.9-11.8 0.1-4.6-1.3-8.5-4.2-11.8-2.9-3.2-6.6-4.8-11.1-5-4.8-0.1-8.8 1.3-12.1 4.4z m12.1-1.9c3.5 0.1 6.1 1.4 7.9 3.9 1.8 2.5 2.7 5.9 2.5 10.2-0.1 4.3-1.2 7.8-3.4 10.4-2.1 2.6-4.9 3.8-8.3 3.7s-6.1-1.4-8.1-4-3-6-2.8-10.3c0.1-4.5 1.3-8 3.4-10.4 2.2-2.4 5.1-3.6 8.8-3.5zM371.21 861.66l4.4-10.1c0.5-1.2 1-1.9 1.5-2.2 0.5-0.3 1.3-0.1 2.4 0.3l0.9 0.4 0.8-1.8-11.9-5.1-0.8 1.8c1.9 0.8 3 1.6 3.4 2.2 0.3 0.6 0.2 1.7-0.5 3.3l-0.6 1.4c-0.5 1.1-1 1.9-1.4 2.4-0.5 0.5-1.2 0.9-2.2 1.2-1 0.3-2.1 0.4-3.2 0.3-1.2-0.1-2.3-0.4-3.4-0.8-1.9-0.8-3.6-2.2-4.8-4-1.3-1.8-2-4-2.1-6.5-0.1-2.5 0.3-5 1.4-7.5 1.3-3.5 3.6-6 6.7-7.5 3.1-1.6 6.1-1.7 9-0.5 2.2 1 3.9 2.4 4.9 4.4 1 2 1.6 4.6 1.6 7.8l2.2 0.2 1.5-10.1-1.5-0.7-1.6 1.6c-1.4-2.6-3.6-4.5-6.6-5.8-4-1.7-8-1.7-12.1 0s-7.1 4.7-8.9 8.9c-1.9 4.4-2.1 8.7-0.5 12.7s4.4 6.9 8.6 8.7c3.3 1.4 6.8 1.7 10.7 1v3.1l2.1 0.9zM439.01 871.06c-0.6 3.9 0.2 6.9 2.5 9.2 2.2 2.3 4.9 3.7 8 4.2 3.6 0.6 6.8-0.1 9.5-1.9s4.3-4.7 4.9-8.6l2.2-14.5c0.2-1.3 0.5-2.1 1-2.5 0.5-0.4 1.4-0.5 2.6-0.3l0.7 0.1 0.3-1.9-10.5-1.6-0.3 1.9 0.9 0.1c1.2 0.2 2 0.6 2.3 1.2 0.3 0.6 0.4 1.5 0.2 2.8l-2.1 13.6c-0.4 2.9-1.1 4.8-2.1 5.9-0.9 1.1-2.2 1.9-3.8 2.5-1.6 0.6-3.2 0.7-4.8 0.5-1.5-0.2-2.9-0.8-4.2-1.7s-2.2-2.1-2.8-3.4c-0.5-1.4-0.6-3.4-0.2-6.1l2.2-14.2c0.2-1.3 0.5-2.1 1-2.5 0.5-0.4 1.3-0.5 2.7-0.3l0.8 0.1 0.3-1.9-12.2-1.9-0.3 1.9 1.2 0.2c1.2 0.2 1.9 0.5 2.2 1 0.3 0.5 0.4 1.4 0.2 2.7l-2.4 15.4zM527.61 792.36c-77 4.3-155.39-23-214.19-81.8s-86.1-137.19-81.8-214.19l-6.3-6.3c-6.1 80.7 21.7 163.49 83.4 225.19s144.49 89.5 225.19 83.4l-6.3-6.3zM274.02 772.77l4.2-9-1.2-1.2-0.9 0.6-13.1-12.8 0.6-0.9-1.1-1.1-8.9 4.4 1 2c2.3-1 4.3-1.5 5.8-1.6 1.5 0 3.2 0.8 5 2.6 0.5 0.5 0.8 0.9 0.8 1.2s-0.3 0.7-0.8 1.2l-15.8 16.2c-0.7 0.7-1.3 1.2-1.7 1.4-0.4 0.2-0.9 0.2-1.4-0.1s-1.2-0.8-2.1-1.7l-1.3 1.4 8.8 8.6 1.3-1.4c-1.1-1-1.7-1.9-1.9-2.6-0.2-0.7 0.3-1.6 1.4-2.8l15.4-15.8c0.7-0.7 1.2-1 1.5-1s0.8 0.3 1.5 1c1.6 1.5 2.4 3.1 2.5 4.6 0.1 1.5-0.4 3.5-1.4 5.9l1.8 0.9zM832.19 319.89l-4.4 17.2-16.7 6.2 15 9.5 0.7 17.7 13.7-11.4 17.1 4.8-6.6-16.5 9.9-14.8-17.7 1.2zM167.62 647.57l23.2-19-1.3-3.5-29.8 0.2c-1.6 0-2.7-0.1-3.3-0.5-0.6-0.3-1.1-1-1.5-2.2l-1.8 0.7 3.3 9 1.8-0.7c-0.4-1.2-0.6-2-0.6-2.5s0.3-0.8 0.8-1c0.4-0.1 0.9-0.2 1.6-0.2l7.3-0.1 4 10.9-5 4.1c-0.9 0.8-1.6 1.2-2.1 1.4-0.5 0.2-0.9 0.1-1.2-0.2s-0.7-1.1-1.1-2.3l-1.8 0.7 3.9 10.7 1.8-0.7-0.2-0.5c-0.3-0.9-0.3-1.6 0-2.3 0.5-0.5 1.1-1.2 2-2z m2.2-19.6l16.1-0.6-12.7 9.9-3.4-9.3z" p-id="17478"></path><path d="M209.42 814.56C89.83 694.97 55.83 522.08 107.43 372.19l-15.7-15.7c-58.7 158.99-24.2 344.58 103.49 472.28S508.51 990.95 667.5 932.26l-15.7-15.7c-149.89 51.6-322.78 17.6-442.38-102zM874.89 424.98l-12.4 12.7-17.5-3 8.3 15.7-8.3 15.7 17.5-2.8 12.4 12.7 2.6-17.6 15.9-7.9-15.9-7.9z" p-id="17479"></path><path d="M828.79 195.19C699.2 65.7 510.11 32.1 349.71 94.3l15.6 15.6c151.49-55.2 327.88-22 449.38 99.5s154.69 297.89 99.5 449.38l15.6 15.6c62.09-160.5 28.49-349.59-101-479.19zM142.02 558.48c1.6 2.4 3.9 4.3 6.7 5.8l1-1.9c-2.2-1.4-4-3-5.4-5-1.4-2-2.2-4-2.4-6-0.3-3.4 0.7-6.3 3-8.9 2.4-2.6 5.6-4.1 9.7-4.5 3.9-0.4 7.3 0.3 10.1 2.2 2.8 1.9 4.4 4.5 4.7 7.7 0.3 2.6-0.3 4.9-1.6 6.8-1.4 1.9-3.5 3.6-6.5 5.2l0.8 2 10.3-4-0.2-1.6-2.2-0.5c1.6-2.8 2.2-5.7 1.9-8.6-0.3-2.8-1.3-5.4-3-7.7s-4-4.1-6.7-5.2c-2.7-1.2-5.5-1.6-8.5-1.3-4.6 0.5-8.3 2.4-11.1 5.8-2.8 3.4-4 7.3-3.5 11.8 0.3 2.9 1.3 5.6 2.9 7.9zM152.32 606.87c0.4-0.2 1-0.5 2-0.7l21.2-4.9c1.4-0.3 2.3-0.3 2.7 0 0.4 0.3 0.8 1 1 2l0.2 1 1.9-0.4-2.8-11.9-1.9 0.4 0.3 1.2c0.3 1.2 0.2 2-0.1 2.4-0.4 0.4-1.3 0.8-2.7 1.1l-8.4 2-3.7-16.1 8.7-2c1.4-0.3 2.4-0.4 2.8-0.1 0.5 0.3 0.9 1.1 1.2 2.4l0.2 0.8 1.9-0.4-2.8-12-1.9 0.4 0.3 1.3c0.2 1 0.2 1.8-0.1 2.2-0.3 0.4-1.1 0.8-2.4 1.1l-21.4 5c-1.3 0.3-2.2 0.3-2.5-0.1-0.4-0.3-0.7-1.1-1-2.4l-0.2-0.8-1.9 0.4 2.8 12 1.9-0.4c-0.4-1.8-0.6-2.9-0.5-3.4 0.1-0.5 1-0.9 2.6-1.3l9.9-2.3 3.7 16.1-10.3 2.4c-0.8 0.2-1.4 0.2-1.7 0.2-0.4 0-0.8-0.2-1-0.6-0.2-0.4-0.5-1-0.7-2l-0.2-0.9-1.9 0.4 2.8 11.9 1.9-0.4c-0.3-1.2-0.4-2.1-0.4-2.7 0-0.3 0.2-0.7 0.5-0.9zM258.12 522.88l-6.9-6.9c1 65.4 26.5 130.49 76.3 180.39 49.9 49.9 114.99 75.3 180.39 76.3l-6.9-6.9c-61.3-2.6-121.89-27.4-168.79-74.2-46.7-46.8-71.4-107.3-74.1-168.69zM279.52 808.86c3.8 2.9 7.8 4 12.1 3.4 4.3-0.6 8-2.8 10.9-6.7 2.8-3.7 4-7.6 3.5-12-0.5-4.3-2.5-7.9-6-10.6-3.8-2.9-7.9-4.1-12.4-3.6-4.5 0.5-8.1 2.7-11 6.4-2.9 3.7-4.1 7.8-3.5 12.1 0.6 4.5 2.7 8.2 6.4 11z m1-19.7c2.8-3.6 5.7-5.7 8.9-6.4 3.2-0.7 6.2 0.1 9.1 2.3 2.7 2.1 4.1 4.7 4.1 7.8 0 3.1-1.3 6.4-4 9.8-2.6 3.4-5.5 5.5-8.8 6.3-3.3 0.8-6.2 0.2-8.9-1.8-2.7-2.1-4.1-4.7-4.2-8-0.1-3.3 1.1-6.6 3.8-10zM319.14 205.84c3.31-0.27 5.83-1.27 7.56-3.01 3.47-3.47 4.5-7.86 3.09-13.17-1.41-5.31-4.28-11.87-8.62-19.68l-3.09 1.46c1.08 5.85-1.14 13.5-6.67 22.93-2.28 3.79-2.22 6.88 0.16 9.27 1.74 1.74 4.26 2.47 7.57 2.2zM163.34 261.79c3.85 1.36 6.5 2 7.97 1.95 1.46-0.05 2.74-0.62 3.82-1.71l7.32-7.32 33.01 33.01-14.31 14.31c-7.05 7.05-12.25 12.14-15.61 15.29l-8.62 7.97c-1.95 1.95-2.58 3.28-1.87 3.98 0.7 0.7 3.58 2.06 8.62 4.07 5.04 2 8.16 2.41 9.35 1.22l7.48-8.46c3.47-3.69 7.43-7.75 11.87-12.2l14.64-14.64 32.85 32.85-8.46 8.46c-1.63 1.63-1.87 3.01-0.73 4.15 1.14 1.14 4.15 2.31 9.03 3.5 4.88 1.19 8.13 0.98 9.76-0.65l7.16-8.13c2.71-3.15 5.85-6.51 9.43-10.08l33.18-33.18 6.67 1.14c1.95 0.43 3.2 0.38 3.74-0.16s0.7-1.9 0.49-4.07L328 275.05l-13.66 0.98-32.04-32.04 14.96-14.96 5.37 0.81c0.97 0.11 1.98 0.19 3.01 0.24 1.03 0.05 1.79-0.16 2.28-0.65 0.49-0.49 0.08-2.03-1.22-4.64l-9.59-19.68c-5.2 5.85-9.98 10.95-14.31 15.29l-12.03 12.04-30.41-30.41-8.13-21.79c-5.32 6.18-10.08 11.38-14.31 15.61l-35.29 35.29c-7.05 7.05-12.25 12.14-15.61 15.29l-8.95 7.97c-1.95 1.95-2.52 3.33-1.71 4.15 0.8 0.8 3.13 1.89 6.98 3.24z m100.91 65.95l-32.85-32.85 21.31-21.31 32.85 32.85-21.31 21.31z m13.34-79.04l32.85 32.85-20.49 20.49-32.85-32.85 20.49-20.49z m-44.56-44.56l33.01 33.01-20.49 20.49-33.01-33.01 20.49-20.49z m-24.89 24.88l33.01 33.01-21.31 21.31-33.01-33.01 21.31-21.31z" p-id="17480"></path><path d="M237.82 168.44c6.23-2.55 11.3-6.1 15.21-10.65l106.36 106.36-24.07 10.73 1.46 3.74c9.86-0.33 17.78-0.22 23.74 0.33 5.96 0.54 10.3 2.17 13.01 4.88 2.71 2.71 4.42 3.72 5.12 3.01 0.7-0.7 1.06-2.36 1.06-4.96l-0.98-26.67-15.78 3.42L257.1 152.74c2.38-3.68 4.71-7.54 6.99-11.55L261 138.1c-2.82 3.68-6.97 6.64-12.44 8.86-5.48 2.22-10.71 3.33-15.69 3.33-4.99 0-8.73 1.25-11.22 3.74-1.74 1.74-2.6 3.63-2.6 5.69 0 2.06 1.03 4.12 3.09 6.18 4.22 4.25 9.45 5.09 15.68 2.54zM442.83 298.14a780.665 780.665 0 0 1-26.35 27.65l-13.82 13.82-16.1-16.1c-4.99-4.99-9.22-9.76-12.69-14.31l-1.3 12.69c4.01 1.63 8.29 4.72 12.85 9.27L398.26 344l-31.06 31.06-43.42-18.38-1.95 16.59c-0.22 1.52-0.11 2.49 0.32 2.93 0.43 0.43 1.62 0.54 3.58 0.33 5.09-0.33 16.26 1.84 33.5 6.51l-42.12 42.12c-2.17 2.17-4.2 3.28-6.1 3.33-1.9 0.05-4.42-1.49-7.56-4.63-3.15-3.15-7.75-8.95-13.82-17.4l-3.9 1.63c7.26 13.12 8.89 22.77 4.88 28.95-1.3 1.95-1.49 3.39-0.57 4.31 0.92 0.92 4.25 2.14 10 3.66s10.33 1.98 13.74 1.38c3.42-0.6 6.91-2.68 10.49-6.26l52.37-52.37 34.15 9.43 1.3-3.25-29.27-12.36 26.51-26.51 21.14 21.14c1.41 1.41 2.46 1.76 3.17 1.06 0.7-0.7 1.11-1.87 1.22-3.5l1.46-18.38-16.26 1.63-6.34-6.34 27-27 7.32 0.49c1.84 0.33 3.12 0.14 3.82-0.57 0.7-0.7 0.62-2.14-0.24-4.31l-8.79-21.15zM451.44 366.28l-92.05 92.05c-4.55 4.55-9.97 5.53-16.26 2.93l-2.11 16.1c-0.22 2.17-0.06 3.52 0.49 4.07 0.54 0.54 1.63 0.76 3.25 0.65 7.59-0.65 15.83-0.43 24.72 0.65l29.27 3.9 0.49-2.76L366.87 472l64.57-64.57 21.47 21.47c1.52 1.52 2.55 2.01 3.09 1.46 0.54-0.54 0.81-1.57 0.81-3.09l1.63-18.21-15.13 1.14-7.32-7.32 37.08-37.08 8.13 0.65c1.73 0.22 2.9 0.03 3.5-0.57 0.59-0.59 0.62-1.92 0.08-3.98l-7.16-23.09a794.099 794.099 0 0 1-26.18 27.47zM520.24 402.88c1.84-0.11 3.12-0.51 3.82-1.22 0.7-0.7 0.68-2.2-0.08-4.47l-7.97-22.61a794.774 794.774 0 0 1-26.18 27.49l-99.86 99.86c-4.34 4.34-6.97 7.99-7.89 10.98-0.92 2.98-0.24 6.42 2.03 10.33s7.64 10.08 16.1 18.54c8.46 8.46 15.64 13.04 21.55 13.74 5.91 0.7 9.57 0.35 10.98-1.06 0.98-0.98 1.19-2.6 0.65-4.88-0.65-5.42 3.41-12.52 12.2-21.31 3.36-3.36 7.48-7.05 12.36-11.06l-2.77-2.77c-11.71 8.67-20.14 14.39-25.29 17.16-5.15 2.76-9.08 3.88-11.79 3.33-2.71-0.54-6.18-2.93-10.41-7.16s-6.83-7.43-7.81-9.6c-0.98-2.17 1.08-5.8 6.18-10.9l57.41-57.41c9.54 3.25 18.16 5.8 25.86 7.64 7.7 1.84 13.23 3.53 16.59 5.04 3.36 1.52 5.72 2.95 7.07 4.31 1.35 1.35 2.44 1.63 3.25 0.81 0.81-0.81 1.22-2.52 1.22-5.12l0.16-19.03c-17.02 2.71-33.61 3.36-49.77 1.95l41.96-41.96 10.43-0.62zM694.26 584.38c2.28 2.28 3.74 3.09 4.39 2.44 0.65-0.65 1.03-2.11 1.14-4.39l1.3-19.52-13.66-2.28-57.08-57.08c-4.88-4.88-9.05-9.71-12.52-14.47l-1.63 13.66c4.01 1.63 8.29 4.72 12.85 9.27l49.77 49.77-33.01-5.37c0.97-3.14 0.46-6.75-1.54-10.82-2.01-4.07-5.83-10.11-11.47-18.13l-3.25 1.63c2.49 7.05 2.27 15.83-0.65 26.35-0.87 3.25-0.46 5.72 1.22 7.4 1.68 1.68 3.63 2.76 5.85 3.25 2.22 0.49 4.25-0.19 6.1-2.03 0.76-0.76 1.35-1.57 1.79-2.44 12.58 3.69 23.04 7.32 31.39 10.9 8.32 3.56 14.67 7.52 19.01 11.86z" p-id="17481"></path><path d="M665.47 613.16l3.9 0.65c1.41 0.32 2.36 0.24 2.85-0.25 0.49-0.49 0.62-1.27 0.41-2.36l-0.81-17.08-12.36 1.3-55.3-55.3-7.64-21.31c-8.03 8.89-16.75 18.05-26.18 27.49l-28.14 28.14c-10.73 10.73-19.84 19.08-27.32 25.05-1.74 1.3-3.31 2.66-4.72 4.06-1.41 1.41-1.57 2.66-0.49 3.74s3.47 2.28 7.16 3.58c3.68 1.3 6.12 1.79 7.32 1.46 1.19-0.33 2.87-1.57 5.04-3.74l21.96-21.95 24.07 24.07c-8.24 8.24-16.7 15.94-25.37 23.09-1.3 1.09-2.6 2.28-3.9 3.58-1.3 1.3-1.41 2.49-0.33 3.58 1.08 1.08 3.31 2.33 6.67 3.74 3.36 1.41 5.77 2.09 7.24 2.03 1.46-0.05 2.95-0.84 4.47-2.36l7.97-8.62c3.14-3.36 7.81-8.13 13.99-14.31l24.72 24.72-12.36 12.36c-2.6 2.6-4.72 4.07-6.34 4.39-1.63 0.33-3.69-0.76-6.18-3.25-2.49-2.49-6.89-7.97-13.17-16.43l-3.09 1.46c4.34 8.24 6.83 14.1 7.48 17.56 0.65 3.47-0.11 6.83-2.28 10.08-1.3 1.95-1.54 3.33-0.73 4.15s4.09 1.87 9.84 3.17c5.74 1.3 9.78 1.55 12.12 0.73 2.33-0.81 5.61-3.33 9.84-7.56l59.66-59.66z m-9.59-12.19l-18.38 18.38-24.72-24.72 18.38-18.38 24.72 24.72z m-59.53-59.53l24.07 24.07-18.38 18.38-24.07-24.07 18.38-18.38z m-16.59 64.73l-24.07-24.07 17.89-17.89 24.07 24.07-17.89 17.89z m10.74 10.73l17.89-17.89 24.72 24.72-17.89 17.89-24.72-24.72zM581.23 502.08c4.34-0.76 8.24-2.87 11.71-6.34 6.29-6.29 5.53-20.82-2.28-43.59l-3.74 0.49c-1.95 16.05-6.56 28.35-13.82 36.92-3.69 4.34-4.34 7.7-1.95 10.08 2.38 2.39 5.74 3.2 10.08 2.44z" p-id="17482"></path><path d="M572.77 710.74c1.52 1.3 2.93 1.41 4.23 0.33 5.31-4.01 12.96-3.52 22.93 1.46l1.79-3.09c-24.5-18.43-47.92-38.81-70.26-61.15-9.87-9.87-16.91-17.62-21.14-23.26-4.23-5.64-7.81-11.98-10.73-19.03-2.93-7.05-4.5-14.04-4.72-20.98l48.3-48.3 7.65 2.12c1.84 0.54 3.17 0.41 3.98-0.41 0.81-0.81 1.06-2.36 0.73-4.64l-2.11-16.1-14.15 0.16-12.2-12.2c-4.88-4.88-9.05-9.7-12.52-14.47l-1.46 13.17c3.58 1.19 7.86 4.28 12.85 9.27l8.94 8.94-51.23 51.23c-7.37-3.25-20.11-7.54-38.22-12.85l-1.95 19.52c0 1.51 0.19 2.46 0.57 2.85 0.38 0.38 1.6 0.4 3.66 0.08 8.46-2.17 15.72-3.36 21.79-3.58 6.07-0.22 10.49 1.06 13.25 3.82 2.77 2.77 4.26 5.77 4.47 9.03 0.65 11.49 2.03 20.46 4.15 26.92 2.11 6.45 6.02 13.28 11.71 20.49 5.69 7.21 13.58 15.86 23.66 25.94 10.08 10.08 19.9 19.68 29.44 28.79l16.59 15.94zM754.11 620.16l-3.09 0.49c-1.52 15.18-5.86 27.43-13.01 36.76-1.41 1.84-2.2 3.82-2.36 5.94-0.16 2.12 0.24 3.66 1.22 4.64 2.28 2.28 5.42 3.09 9.43 2.44 4.01-0.65 7.48-2.44 10.41-5.37 7.05-7.06 6.18-22.03-2.6-44.9zM847.3 695.13c-9 9.86-17.78 19.08-26.35 27.65l-12.85 12.85-43.42-43.42c-4.88-4.88-9.05-9.7-12.52-14.47l-1.14 12.85c3.79 1.63 8.02 4.77 12.68 9.43l40.01 40.01-61.8 61.8c-3.69 3.69-6.62 5.26-8.78 4.72-2.17-0.54-4.72-2.28-7.64-5.2-2.93-2.93-7.75-9.16-14.47-18.7l-3.58 2.28c5.64 10.63 8.78 17.94 9.43 21.96 0.65 4.01-0.16 7.32-2.44 9.92-2.28 2.6-2.96 4.36-2.03 5.29 0.92 0.92 4.36 1.92 10.33 3.01 5.96 1.08 11.03 0.79 15.21-0.89 4.17-1.68 9.24-5.5 15.21-11.47l61.64-61.64 27.32 27.32c1.41 1.41 2.47 1.76 3.17 1.06 0.7-0.7 1.16-1.81 1.38-3.33l1.95-20.49-18.7 1.79-10.73-10.73 24.23-24.23 7.97 1.14c2.28 0.33 3.77 0.14 4.47-0.57 0.7-0.7 0.62-2.03-0.24-3.98l-8.31-23.96z" p-id="17483"></path><path d="M730.69 746.36c-3.25 3.9-3.74 6.99-1.46 9.27 2.28 2.28 5.66 3.22 10.16 2.85 4.5-0.38 8.48-2.3 11.95-5.77 3.47-3.47 4.99-8.84 4.55-16.1-0.44-7.27-2.01-15.61-4.72-25.05l-3.74 0.49c-1.09 5.85-2.66 11.17-4.72 15.94-2.05 4.76-6.06 10.89-12.02 18.37z" p-id="17484"></path><path d="M686.13 803.77c-7.81-8.57-13.88-17.51-18.22-26.83-4.34-9.33-6.78-18.59-7.32-27.81l45.21-45.21 8.29 1.79c1.84 0.33 3.09 0.16 3.74-0.49 0.65-0.65 0.87-2.06 0.65-4.23l-2.93-17.89-14.15 1.79-13.66-13.66c-4.99-4.99-9.22-9.76-12.69-14.31l-1.3 12.69c2.82 0.43 7.1 3.52 12.85 9.27l10.9 10.9-47.81 47.81c-3.9-1.95-17.78-5.64-41.64-11.06l-2.76 18.38c-0.33 1.84-0.22 3.03 0.32 3.58 0.54 0.54 1.84 0.54 3.9 0 5.2-1.95 11.55-3.31 19.03-4.07 7.48-0.76 12.66-0.9 15.53-0.41 2.87 0.49 5.07 1.49 6.59 3.01 1.52 1.52 2.3 4.96 2.36 10.33 0.05 5.36 1.11 11.63 3.17 18.78 2.06 7.15 4.85 14.12 8.38 20.9 3.52 6.77 7.94 13.42 13.25 19.92 5.31 6.5 13.34 15.78 24.07 27.81 10.73 12.04 19.41 21.36 26.02 27.97 1.41 1.41 2.44 2.17 3.09 2.28 0.65 0.11 1.79-0.44 3.42-1.63s4.42-1.87 8.38-2.03c3.96-0.17 8.43 0.84 13.42 3.01l2.28-3.25c-20.27-16.16-35.45-29.27-45.54-39.36-10.08-10.09-19.03-19.42-26.83-27.98z" p-id="17485"></path></svg>