<svg t="1612669792499" class="icon" viewBox="0 0 1024 1024" version="1.1" xmlns="http://www.w3.org/2000/svg" p-id="15716" width="200" height="200"><path d="M512 64C264.58 64 64 264.58 64 512s200.58 448 448 448 448-200.58 448-448S759.42 64 512 64z m0 859.43c-227.23 0-411.43-184.2-411.43-411.43S284.77 100.57 512 100.57c227.22 0 411.43 184.2 411.43 411.43S739.22 923.43 512 923.43z" p-id="15717"></path><path d="M512 512m-350.61 0a350.61 350.61 0 1 0 701.22 0 350.61 350.61 0 1 0-701.22 0Z" p-id="15718"></path></svg>