<svg t="1612670653351" class="icon" viewBox="0 0 1024 1024" version="1.1" xmlns="http://www.w3.org/2000/svg" p-id="17095" width="200" height="200"><path d="M588.06 117.81V77.52c0-7.46-6.06-13.52-13.52-13.52H439.18c-7.46 0-13.52 6.06-13.52 13.52v42.49C249.13 159.34 117.1 316.91 117.1 505.38c0 134.83 67.59 253.87 170.65 325.06l37.48-120C270.1 659 235.6 585.61 235.6 504.24c0-155.73 126.23-282.05 282.05-282.05S799.7 348.42 799.7 504.24c0 85.94-38.45 162.84-99.02 214.63l35.2 111.84c103.23-71.28 171-190.4 171-325.32 0.01-192.09-137.11-352.11-318.82-387.58z m183.65 767.22c-122.46-7.02-219.63-27.83-219.63-152.04v-83.83c0-31.16 63.64-56.44 94.81-56.44h0.26l0.79-133.78c0-7.46-6.06-13.52-13.52-13.52H390.55c-7.46 0-13.52 6.06-13.52 13.52l0.53 130.53c29.5 1.84 91.12 26.33 91.12 56.27v83.83c0 124.83-98.14 147.83-221.48 153.88l-0.09 0.26 0.79 62.76c0 7.46 6.06 13.52 13.52 13.52h498.69c7.46 0 13.52-6.06 13.52-13.52l-0.7-61.27-1.22-0.17z" p-id="17096"></path></svg>