<svg t="1612668922744" class="icon" viewBox="0 0 1024 1024" version="1.1" xmlns="http://www.w3.org/2000/svg" p-id="8772" width="200" height="200"><path d="M671.61 624.67c-17.39 0-31.48 14.12-31.48 31.55s14.08 31.57 31.48 31.57c17.39 0 31.46-14.14 31.46-31.57s-14.09-31.55-31.46-31.55zM437.79 289.49h107.92v33.07H437.79z" p-id="8773"></path><path d="M512 64C264.96 64 64 264.96 64 512s200.96 448 448 448 448-200.96 448-448S759.04 64 512 64z m21.67 658.38l-122.85-0.02v16.12c0 11.02-8.92 19.96-19.94 19.96h-5.05c-11.04 0-19.96-8.94-19.96-19.96v-16.12h-6.08c-26.44 0-47.88-21.44-47.88-47.88V370.44c0-26.44 21.44-47.88 47.88-47.88h48.03v-33.07H389.9c-8.09-0.29-14.51-6.93-14.51-15.03s6.41-14.74 14.51-15.03h203.72c8.09 0.29 14.51 6.93 14.51 15.03s-6.41 14.74-14.51 15.03h-14.96v33.07h45.06c26.44 0 47.88 21.44 47.88 47.88v132.48c-84.43 0-152.87 68.64-152.87 153.3 0.01 23.7 5.36 46.13 14.94 66.16z m245.84-54c0 2.69-1.22 4.4-3.55 5.33l-1.5 0.49-27.87 2.58a46.48 46.48 0 0 1-5.18 15.23l-2.09 3.39 17.75 21.47c2.24 2.24 2.26 4.53 0.26 6.96l-0.97 1.05-16.68 16.68c-0.79 0.79-1.81 1.29-2.92 1.42h-1.08l-0.99-0.06a4.63 4.63 0 0 1-1.87-0.71l-0.79-0.65-21.4-17.45a64.371 64.371 0 0 1-14.87 6.92l-3.93 1.08-2.58 27.29a5.68 5.68 0 0 1-4.58 4.99l-1.18 0.04h-23.51a5.405 5.405 0 0 1-5.46-3.78l-0.3-1.25-2.58-27.29a61.068 61.068 0 0 1-15.52-5.87l-3.65-2.13-21.04 17.45c-0.7 0.74-1.63 1.22-2.64 1.38l-1.01 0.04h-1.08c-0.72-0.09-1.41-0.34-2.02-0.73l-0.88-0.69-16.7-16.68c-2.56-2.6-3.16-4.81-1.53-7.05l0.84-0.95 17.75-21.08c-2.5-4.44-4.57-9.11-6.17-13.95l-1.48-4.92-27.87-2.58c-2.71-0.67-4.49-2.09-4.86-4.86l-0.06-1.48v-24.03c0-2.69 1.22-4.41 3.53-5.35l1.52-0.47 27.87-2.6a93.98 93.98 0 0 1 5.35-14.35l2.28-4.53-17.75-21.45c-2.23-2.21-2.28-4.34-0.39-6.53l1.1-1.1 16.57-16.27c0.75-0.87 1.76-1.48 2.88-1.72l1.12-0.09 1.01 0.13c0.67 0.19 1.31 0.49 1.85 0.94l0.77 0.75 21.04 17.06a70.28 70.28 0 0 1 15.19-6.57l3.98-1.07 2.58-27.27a5.771 5.771 0 0 1 4.53-5.37l1.23-0.07h23.51v0.02c2.53-0.19 4.77 1.55 5.52 4.08l0.24 1.35 2.58 27.27a72.34 72.34 0 0 1 14.27 5.24l4.53 2.39 21.4-17.08c0.68-0.81 1.59-1.4 2.62-1.66l1.03-0.13 1.12 0.09c0.73 0.16 1.42 0.48 2.02 0.94l0.86 0.77L756 588.1c2.43 2.21 3.1 4.34 1.63 6.53l-0.94 1.1-17.73 21.45c3.03 4.49 5.29 9.5 6.73 14.81l0.9 4.06 27.87 2.58c2.73 0.65 4.41 2.02 4.9 4.32l0.15 1.5v23.93z" p-id="8774"></path></svg>