<svg t="1612669025586" class="icon" viewBox="0 0 1024 1024" version="1.1" xmlns="http://www.w3.org/2000/svg" p-id="8898" width="200" height="200"><path d="M512 64C264.96 64 64 264.96 64 512s200.96 448 448 448 448-200.96 448-448S759.04 64 512 64z m149.92 248.05l16.13-38.7 16.13 38.7h38.7l-32.26 25.81L716.75 383l-35.47-29.02L642.59 383l12.89-45.15-32.26-25.81h38.7z m61.28 312.82l-19.34-16.13-25.81 16.13 9.68-25.81-16.13-12.89h22.57l9.68-22.57 6.45 22.57h22.57l-19.36 12.89 9.69 25.81zM587.76 441.04l9.68-29.02 9.68 29.02h29.02l-25.81 19.34 9.68 32.26-25.81-19.34-25.81 19.34 9.68-32.26-22.57-19.34h32.26z m-51.57 328.95C394.3 769.99 278.2 653.89 278.2 512c0-135.44 99.95-245.1 232.18-257.99-35.49 45.15-58.07 99.98-58.04 161.25 0 141.89 116.1 257.99 257.99 257.99h35.47c-45.15 58.04-129 96.74-209.61 96.74z" p-id="8899"></path></svg>